<svg width="24" height="25" viewBox="0 0 24 25" fill="none" xmlns="http://www.w3.org/2000/svg">
<path d="M15.0301 10.8608L20.6901 7.0708C21.2601 6.6908 21.4101 5.9108 21.0301 5.3508L19.2101 2.64078C18.8301 2.07078 18.0501 1.92078 17.4901 2.30078L11.8301 6.09079L15.0301 10.8608Z" stroke="#292D32" stroke-width="1.5" stroke-linecap="round" stroke-linejoin="round"/>
<path d="M12.1737 6.57014L7.396 9.77002L9.9559 13.5922L14.7336 10.3923L12.1737 6.57014Z" stroke="#292D32" stroke-width="1.5" stroke-linecap="round" stroke-linejoin="round"/>
<path d="M5.83004 15.9907L9.78004 13.3507L7.54004 10.0107L3.59004 12.6507C3.13004 12.9607 3.01004 13.5807 3.32004 14.0407L4.45004 15.7207C4.75004 16.1707 5.37004 16.2907 5.83004 15.9907Z" stroke="#292D32" stroke-width="1.5" stroke-linecap="round" stroke-linejoin="round"/>
<path d="M12.0501 12.2908L7.56006 22.0908" stroke="#292D32" stroke-width="1.5" stroke-linecap="round" stroke-linejoin="round"/>
<path d="M12 12.2908L16.44 22.0908" stroke="#292D32" stroke-width="1.5" stroke-linecap="round" stroke-linejoin="round"/>
</svg>
