<svg width="61" height="59" viewBox="0 0 61 59" fill="none" xmlns="http://www.w3.org/2000/svg">
<g clip-path="url(#clip0_127_22277)">
<path fill-rule="evenodd" clip-rule="evenodd" d="M30.4106 0C13.8708 0 0.5 13.5208 0.5 30.2479C0.5 43.6188 9.06714 54.937 20.952 58.9428C22.438 59.244 22.9822 58.292 22.9822 57.4912C22.9822 56.79 22.9333 54.3863 22.9333 51.8819C14.6129 53.6851 12.8802 48.2761 12.8802 48.2761C11.5431 44.7706 9.56184 43.8696 9.56184 43.8696C6.83857 42.0166 9.7602 42.0166 9.7602 42.0166C12.781 42.217 14.3661 45.1215 14.3661 45.1215C17.0398 49.7284 21.3482 48.4267 23.0814 47.6253C23.3288 45.6721 24.1216 44.3201 24.9635 43.569C18.3273 42.8678 11.3453 40.2638 11.3453 28.6451C11.3453 25.3399 12.5331 22.6357 14.4151 20.5326C14.1182 19.7816 13.078 16.6761 14.7127 12.5197C14.7127 12.5197 17.2382 11.7183 22.9327 15.6246C25.3707 14.9624 27.885 14.6256 30.4106 14.6228C32.9361 14.6228 35.5106 14.9737 37.888 15.6246C43.5831 11.7183 46.1086 12.5197 46.1086 12.5197C47.7433 16.6761 46.7024 19.7816 46.4055 20.5326C48.3371 22.6357 49.4759 25.3399 49.4759 28.6451C49.4759 40.2638 42.4939 42.8174 35.8082 43.569C36.898 44.5204 37.8384 46.323 37.8384 49.1777C37.8384 53.234 37.7894 56.4894 37.7894 57.4906C37.7894 58.292 38.3343 59.244 39.8196 58.9435C51.7045 54.9364 60.2716 43.6188 60.2716 30.2479C60.3206 13.5208 46.9008 0 30.4106 0Z" fill="#2C2A4A"/>
</g>
<defs>
<clipPath id="clip0_127_22277">
<rect width="60" height="59" fill="white" transform="translate(0.5)"/>
</clipPath>
</defs>
</svg>
