<svg width="61" height="60" viewBox="0 0 61 60" fill="none" xmlns="http://www.w3.org/2000/svg">
<path d="M9.25 50C8.25 50 7.375 49.625 6.625 48.875C5.875 48.125 5.5 47.25 5.5 46.25V13.75C5.5 12.75 5.875 11.875 6.625 11.125C7.375 10.375 8.25 10 9.25 10H51.75C52.75 10 53.625 10.375 54.375 11.125C55.125 11.875 55.5 12.75 55.5 13.75V46.25C55.5 47.25 55.125 48.125 54.375 48.875C53.625 49.625 52.75 50 51.75 50H9.25ZM30.5 31.125L9.25 17.1875V46.25H51.75V17.1875L30.5 31.125ZM30.5 27.375L51.5 13.75H9.5625L30.5 27.375ZM9.25 17.1875V13.75V46.25V17.1875Z" fill="#2C2A4A"/>
</svg>
